<?xml version="1.0" encoding="UTF-8"?>
<svg width="294px" height="70px" viewBox="0 0 294 70" version="1.1" xmlns="http://www.w3.org/2000/svg" xmlns:xlink="http://www.w3.org/1999/xlink">
    <!-- Generator: Sketch 51.3 (57544) - http://www.bohemiancoding.com/sketch -->
    <title>Wordmark</title>
    <desc>Created with Sketch.</desc>
    <defs></defs>
    <g id="Wordmark" stroke="none" stroke-width="1" fill="none" fill-rule="evenodd">
        <path d="M2,2 L29.048,2 C38.3093796,2 45.2093106,3.33398666 49.748,6.002 C54.2866894,8.67001334 56.556,13.4386323 56.556,20.308 C56.556,27.9133714 53.7960276,33.1573189 48.276,36.04 C43.1239742,38.6773465 35.9173796,39.996 26.656,39.996 L25.92,39.996 L25.92,64.652 L37.42,64.652 L37.42,66.4 L2,66.4 L2,64.652 L7.98,64.652 L7.98,3.748 L2,3.748 L2,2 Z M25.92,3.748 L25.92,38.248 L27.852,38.248 C31.5320184,38.248 34.0773263,36.9906792 35.488,34.476 C36.8986737,31.9613208 37.604,27.8826949 37.604,22.24 L37.604,17.824 C37.604,12.6106406 36.9446733,8.96134376 35.626,6.876 C34.3073267,4.79065624 31.9000175,3.748 28.404,3.748 L25.92,3.748 Z M88.824,48.276 L88.824,40.456 C88.824,34.5066369 88.5020032,30.167347 87.858,27.438 C87.2139968,24.708653 85.7266783,23.344 83.396,23.344 C82.0466599,23.344 80.9580041,23.7273295 80.13,24.494 C79.3019959,25.2606705 78.7040018,26.5333244 78.336,28.312 C77.7839972,31.0720138 77.508,35.2733051 77.508,40.916 L77.508,48.092 C77.508,54.7773668 77.7073313,58.7946599 78.106,60.144 C78.5046687,61.4933401 78.9186645,62.597329 79.348,63.456 C80.02267,64.9280074 81.3413235,65.664 83.304,65.664 C85.696012,65.664 87.2599963,64.2840138 87.996,61.524 C88.5480028,59.5613235 88.824,55.1453677 88.824,48.276 Z M83.12,67.32 C75.453295,67.32 69.657353,65.357353 65.732,61.432 C61.806647,57.506647 59.844,51.87937 59.844,44.55 C59.844,37.22063 61.9446457,31.5780198 66.146,27.622 C70.3473543,23.6659802 76.2506286,21.688 83.856,21.688 C91.4613714,21.688 97.134648,23.5126484 100.876,27.162 C104.617352,30.8113516 106.488,36.3772959 106.488,43.86 C106.488,59.5000782 98.6987446,67.32 83.12,67.32 Z M141.792,25.184 C139.522655,25.184 137.529342,26.6559853 135.812,29.6 C134.094658,32.5440147 133.236,36.0399798 133.236,40.088 L133.236,64.744 L139.768,64.744 L139.768,66.4 L111.064,66.4 L111.064,64.744 L116.124,64.744 L116.124,24.264 L111.064,24.264 L111.064,22.608 L133.236,22.608 L133.236,31.44 C134.033337,28.3119844 135.566655,25.9046751 137.836,24.218 C140.105345,22.5313249 142.681319,21.688 145.564,21.688 C148.446681,21.688 150.792658,22.5006585 152.602,24.126 C154.411342,25.7513415 155.316,28.0513185 155.316,31.026 C155.316,34.0006815 154.64134,36.2853254 153.292,37.88 C151.94266,39.4746746 149.872681,40.272 147.082,40.272 C144.291319,40.272 142.236673,39.3520092 140.918,37.512 C139.599327,35.6719908 139.430662,33.1266829 140.412,29.876 L143.724,29.876 C145.257341,26.7479844 144.613347,25.184 141.792,25.184 Z M163.204,53.244 L163.204,24.264 L158.144,24.264 L158.144,22.608 L163.204,22.608 L163.204,10.74 L180.316,6.508 L180.316,22.608 L192.276,22.608 L192.276,24.264 L180.316,24.264 L180.316,55.268 C180.316,58.1506811 180.60733,60.2666599 181.19,61.616 C181.77267,62.9653401 182.983991,63.64 184.824,63.64 C186.664009,63.64 188.273993,62.7200092 189.654,60.88 C191.034007,59.0399908 191.938665,56.5253493 192.368,53.336 L193.932,53.52 C193.441331,57.7520212 192.092011,61.1099876 189.884,63.594 C187.675989,66.0780124 184.026692,67.32 178.936,67.32 C173.845308,67.32 169.95068,66.3080101 167.252,64.284 C164.55332,62.2599899 163.204,58.5800267 163.204,53.244 Z M221.048,67.32 C213.13596,67.32 207.20202,65.2806871 203.246,61.202 C199.28998,57.1233129 197.312,51.4500363 197.312,44.182 C197.312,36.9139637 199.535311,31.3480193 203.982,27.484 C208.428689,23.6199807 214.086632,21.688 220.956,21.688 C234.878736,21.688 241.564003,28.6799301 241.012,42.664 L215.068,42.664 L215.068,46.252 C215.068,52.2626967 215.834659,56.801318 217.368,59.868 C218.901341,62.934682 221.569314,64.468 225.372,64.468 C232.486702,64.468 237.147989,60.6653714 239.356,53.06 L241.012,53.336 C239.846661,57.7520221 237.746015,61.1866544 234.71,63.64 C231.673985,66.0933456 227.12003,67.32 221.048,67.32 Z M215.16,40.824 L224.636,40.824 L224.636,36.316 C224.636,31.3479752 224.34467,27.9593424 223.762,26.15 C223.17933,24.3406576 222.014009,23.436 220.266,23.436 C218.517991,23.436 217.230004,24.4019903 216.402,26.334 C215.573996,28.2660097 215.16,31.5933097 215.16,36.316 L215.16,40.824 Z M277.052,25.184 C274.782655,25.184 272.789342,26.6559853 271.072,29.6 C269.354658,32.5440147 268.496,36.0399798 268.496,40.088 L268.496,64.744 L275.028,64.744 L275.028,66.4 L246.324,66.4 L246.324,64.744 L251.384,64.744 L251.384,24.264 L246.324,24.264 L246.324,22.608 L268.496,22.608 L268.496,31.44 C269.293337,28.3119844 270.826655,25.9046751 273.096,24.218 C275.365345,22.5313249 277.941319,21.688 280.824,21.688 C283.706681,21.688 286.052658,22.5006585 287.862,24.126 C289.671342,25.7513415 290.576,28.0513185 290.576,31.026 C290.576,34.0006815 289.90134,36.2853254 288.552,37.88 C287.20266,39.4746746 285.132681,40.272 282.342,40.272 C279.551319,40.272 277.496673,39.3520092 276.178,37.512 C274.859327,35.6719908 274.690662,33.1266829 275.672,29.876 L278.984,29.876 C280.517341,26.7479844 279.873347,25.184 277.052,25.184 Z" id="Porter" fill="#3C2E53"></path>
    </g>
</svg>