<?xml version="1.0" encoding="UTF-8"?>
<svg width="334px" height="226px" viewBox="0 0 334 226" version="1.1" xmlns="http://www.w3.org/2000/svg" xmlns:xlink="http://www.w3.org/1999/xlink">
    <!-- Generator: Sketch 51.3 (57544) - http://www.bohemiancoding.com/sketch -->
    <title>card</title>
    <desc>Created with Sketch.</desc>
    <defs></defs>
    <g id="card" stroke="none" stroke-width="1" fill="none" fill-rule="evenodd">
        <rect fill="#DDF5F2" x="0" y="0" width="334" height="226"></rect>
        <circle id="Oval-9" fill="#D9D6DD" fill-rule="nonzero" cx="125.467654" cy="132.792" r="15"></circle>
        <circle id="Oval-9" fill="#DFB960" fill-rule="nonzero" cx="257.967654" cy="132.292" r="9.5"></circle>
        <path d="M62.7046249,86.8 L82.1086249,86.8 C88.7526581,86.8 93.7026086,87.7569904 96.9586249,89.671 C100.214641,91.5850096 101.842625,95.0059754 101.842625,99.934 C101.842625,105.390027 99.8626447,109.15199 95.9026249,111.22 C92.2066064,113.112009 87.0366581,114.058 80.3926249,114.058 L79.8646249,114.058 L79.8646249,131.746 L88.1146249,131.746 L88.1146249,133 L62.7046249,133 L62.7046249,131.746 L66.9946249,131.746 L66.9946249,88.054 L62.7046249,88.054 L62.7046249,86.8 Z M79.8646249,88.054 L79.8646249,112.804 L81.2506249,112.804 C83.8906381,112.804 85.7166198,111.902009 86.7286249,110.098 C87.74063,108.293991 88.2466249,105.36802 88.2466249,101.32 L88.2466249,98.152 C88.2466249,94.4119813 87.7736296,91.7940075 86.8276249,90.298 C85.8816202,88.8019925 84.1546374,88.054 81.6466249,88.054 L79.8646249,88.054 Z M123.098292,119.998 L123.098292,114.388 C123.098292,110.119979 122.867294,107.00701 122.405292,105.049 C121.943289,103.09099 120.8763,102.112 119.204292,102.112 C118.236287,102.112 117.455295,102.386997 116.861292,102.937 C116.267289,103.487003 115.838293,104.399994 115.574292,105.676 C115.17829,107.65601 114.980292,110.66998 114.980292,114.718 L114.980292,119.866 C114.980292,124.662024 115.12329,127.543995 115.409292,128.512 C115.695293,129.480005 115.99229,130.271997 116.300292,130.888 C116.784294,131.944005 117.730285,132.472 119.138292,132.472 C120.8543,132.472 121.976289,131.48201 122.504292,129.502 C122.900294,128.093993 123.098292,124.926025 123.098292,119.998 Z M119.006292,133.66 C113.506264,133.66 109.348306,132.252014 106.532292,129.436 C103.716278,126.619986 102.308292,122.583026 102.308292,117.325 C102.308292,112.066974 103.815277,108.019014 106.829292,105.181 C109.843307,102.342986 114.078264,100.924 119.534292,100.924 C124.990319,100.924 129.060278,102.232987 131.744292,104.851 C134.428305,107.469013 135.770292,111.461973 135.770292,116.83 C135.770292,128.050056 130.182347,133.66 119.006292,133.66 Z M159.203958,103.432 C157.57595,103.432 156.145964,104.487989 154.913958,106.6 C153.681952,108.712011 153.065958,111.219985 153.065958,114.124 L153.065958,131.812 L157.751958,131.812 L157.751958,133 L137.159958,133 L137.159958,131.812 L140.789958,131.812 L140.789958,102.772 L137.159958,102.772 L137.159958,101.584 L153.065958,101.584 L153.065958,107.92 C153.637961,105.675989 154.73795,103.949006 156.365958,102.739 C157.993966,101.528994 159.841948,100.924 161.909958,100.924 C163.977969,100.924 165.660952,101.506994 166.958958,102.673 C168.256965,103.839006 168.905958,105.488989 168.905958,107.623 C168.905958,109.757011 168.421963,111.395994 167.453958,112.54 C166.485953,113.684006 165.000968,114.256 162.998958,114.256 C160.996948,114.256 159.522963,113.596007 158.576958,112.276 C157.630954,110.955993 157.509955,109.130012 158.213958,106.798 L160.589958,106.798 C161.689964,104.553989 161.227968,103.432 159.203958,103.432 Z M172.671625,123.562 L172.671625,102.772 L169.041625,102.772 L169.041625,101.584 L172.671625,101.584 L172.671625,93.07 L184.947625,90.034 L184.947625,101.584 L193.527625,101.584 L193.527625,102.772 L184.947625,102.772 L184.947625,125.014 C184.947625,127.08201 185.156623,128.599995 185.574625,129.568 C185.992627,130.536005 186.861618,131.02 188.181625,131.02 C189.501632,131.02 190.65662,130.360007 191.646625,129.04 C192.63663,127.719993 193.285623,125.916011 193.593625,123.628 L194.715625,123.76 C194.363623,126.796015 193.395633,129.204991 191.811625,130.987 C190.227617,132.769009 187.609643,133.66 183.957625,133.66 C180.305607,133.66 177.511635,132.934007 175.575625,131.482 C173.639615,130.029993 172.671625,127.390019 172.671625,123.562 Z M212.275292,133.66 C206.599263,133.66 202.342306,132.197015 199.504292,129.271 C196.666278,126.344985 195.247292,122.275026 195.247292,117.061 C195.247292,111.846974 196.842276,107.854014 200.032292,105.082 C203.222308,102.309986 207.281267,100.924 212.209292,100.924 C222.197342,100.924 226.993294,105.93995 226.597292,115.972 L207.985292,115.972 L207.985292,118.546 C207.985292,122.858022 208.535286,126.113989 209.635292,128.314 C210.735297,130.514011 212.649278,131.614 215.377292,131.614 C220.481317,131.614 223.825284,128.886027 225.409292,123.43 L226.597292,123.628 C225.761288,126.796016 224.254303,129.259991 222.076292,131.02 C219.898281,132.780009 216.631313,133.66 212.275292,133.66 Z M208.051292,114.652 L214.849292,114.652 L214.849292,111.418 C214.849292,107.853982 214.640294,105.423006 214.222292,104.125 C213.80429,102.826994 212.968298,102.178 211.714292,102.178 C210.460285,102.178 209.536295,102.870993 208.942292,104.257 C208.348289,105.643007 208.051292,108.029983 208.051292,111.418 L208.051292,114.652 Z M250.558958,103.432 C248.93095,103.432 247.500965,104.487989 246.268958,106.6 C245.036952,108.712011 244.420958,111.219985 244.420958,114.124 L244.420958,131.812 L249.106958,131.812 L249.106958,133 L228.514958,133 L228.514958,131.812 L232.144958,131.812 L232.144958,102.772 L228.514958,102.772 L228.514958,101.584 L244.420958,101.584 L244.420958,107.92 C244.992961,105.675989 246.09295,103.949006 247.720958,102.739 C249.348967,101.528994 251.196948,100.924 253.264958,100.924 C255.332969,100.924 257.015952,101.506994 258.313958,102.673 C259.611965,103.839006 260.260958,105.488989 260.260958,107.623 C260.260958,109.757011 259.776963,111.395994 258.808958,112.54 C257.840954,113.684006 256.355968,114.256 254.353958,114.256 C252.351948,114.256 250.877963,113.596007 249.931958,112.276 C248.985954,110.955993 248.864955,109.130012 249.568958,106.798 L251.944958,106.798 C253.044964,104.553989 252.582969,103.432 250.558958,103.432 Z" id="Porter" fill="#3C2E53"></path>
    </g>
</svg>